<?xml version="1.0" encoding="UTF-8" standalone="no"?>
<svg
   xmlns:dc="http://purl.org/dc/elements/1.1/"
   xmlns:cc="http://creativecommons.org/ns#"
   xmlns:rdf="http://www.w3.org/1999/02/22-rdf-syntax-ns#"
   xmlns:svg="http://www.w3.org/2000/svg"
   xmlns="http://www.w3.org/2000/svg"
   xmlns:sodipodi="http://sodipodi.sourceforge.net/DTD/sodipodi-0.dtd"
   xmlns:inkscape="http://www.inkscape.org/namespaces/inkscape"
   inkscape:version="1.0 (4035a4fb49, 2020-05-01)"
   sodipodi:docname="capsulas.svg"
   id="svg10"
   preserveAspectRatio="xMidYMid meet"
   viewBox="0 0 47.999999 48.000001"
   height="64"
   width="64"
   version="1.0">
  <metadata
     id="metadata16">
    <rdf:RDF>
      <cc:Work
         rdf:about="">
        <dc:format>image/svg+xml</dc:format>
        <dc:type
           rdf:resource="http://purl.org/dc/dcmitype/StillImage" />
        <dc:title></dc:title>
      </cc:Work>
    </rdf:RDF>
  </metadata>
  <defs
     id="defs14" />
  <sodipodi:namedview
     units="px"
     inkscape:snap-grids="true"
     inkscape:snap-global="true"
     inkscape:current-layer="svg10"
     inkscape:window-maximized="1"
     inkscape:window-y="0"
     inkscape:window-x="0"
     inkscape:cy="39.110649"
     inkscape:cx="35.700767"
     inkscape:zoom="8.2454981"
     showgrid="false"
     id="namedview12"
     inkscape:window-height="711"
     inkscape:window-width="1366"
     inkscape:pageshadow="2"
     inkscape:pageopacity="0"
     guidetolerance="10"
     gridtolerance="10"
     objecttolerance="10"
     borderopacity="1"
     bordercolor="#666666"
     pagecolor="#ffffff"
     inkscape:document-rotation="0" />
  <path
     id="path845"
     d="m 21.345844,21.668294 c -0.118194,-0.01152 -0.532641,-0.06375 -0.920993,-0.116049 -3.352065,-0.451461 -6.14163,-2.061269 -6.138003,-3.542131 0.0015,-0.595097 0.358862,-1.077949 1.232262,-1.664779 0.769013,-0.516693 2.691889,-1.422565 3.019652,-1.422565 0.07677,0 0.302526,0.136983 0.505827,0.306928 0.985733,0.824001 1.290717,1.047534 1.702085,1.247512 0.795388,0.38666 1.426393,0.496277 2.809553,0.488073 1.305803,-0.0077 2.331386,-0.225178 3.206268,-0.679761 0.427651,-0.222205 0.715282,-0.502741 1.052453,-1.026507 0.181536,-0.28199 0.214104,-0.304676 0.420311,-0.292764 0.37736,0.0218 1.75391,0.50205 2.451566,0.855301 1.371158,0.694272 2.106591,1.574025 1.994788,2.386242 -0.191236,1.389204 -2.431698,2.724305 -5.410716,3.224267 -0.472773,0.07935 -1.195907,0.174074 -1.606952,0.210508 -0.671762,0.05954 -3.781211,0.07807 -4.318101,0.02572 z"
     style="fill:#34cb79;fill-opacity:1;stroke-width:0.061267" />
  <path
     id="path847"
     d="M 20.240653,42.273336 C 17.279593,41.904724 15.357021,41.388904 13.333207,40.420075 11.519153,39.551662 10.51611,38.779836 9.8324613,37.72632 9.4709783,37.169263 9.307959,36.691849 9.267571,36.071983 9.1964834,34.98096 9.4685693,34.212609 10.184165,33.483589 l 0.426139,-0.434138 -0.03288,0.336245 c -0.01808,0.184936 -0.07491,0.638868 -0.126288,1.00874 -0.169768,1.222247 -0.09094,1.966328 0.283473,2.675888 0.253909,0.481188 1.41417,1.657533 2.107403,2.136621 2.057601,1.421979 4.735545,2.17055 8.718731,2.437149 1.193564,0.07989 3.93442,0.04461 5.065462,-0.06521 4.226755,-0.410376 7.144464,-1.548532 9.015759,-3.516933 0.555923,-0.584766 0.877898,-1.104981 1.01991,-1.647882 0.108811,-0.415953 0.129405,-1.691723 0.03783,-2.344175 -0.03158,-0.225002 -0.07398,-0.573337 -0.09423,-0.774085 l -0.03681,-0.364995 0.190105,0.181344 c 0.242921,0.231739 0.721332,0.983952 0.951614,1.496243 0.156542,0.348253 0.18153,0.484781 0.202104,1.10426 0.02092,0.630066 0.007,0.754134 -0.128425,1.141774 -0.779304,2.231261 -4.392048,4.329907 -8.702391,5.055232 -1.845084,0.310487 -2.423958,0.348631 -5.617549,0.370147 -1.654719,0.01115 -3.105283,0.0082 -3.223477,-0.0065 z"
     style="fill:#34cb79;fill-opacity:1;stroke-width:0.061267" />
  <path
     id="path849"
     d="M 20.897749,44.644519 C 16.079699,44.186776 12.10271,42.788879 9.4480865,40.620005 8.2085241,39.607261 7.3832279,38.380787 7.0409622,37.042777 6.8232749,36.191778 6.9001866,34.670163 7.197434,33.947162 c 0.3478022,-0.845971 0.7410194,-1.432484 1.5872475,-2.3675 0.4298186,-0.474916 0.8881598,-0.98739 1.0185368,-1.138826 0.2220487,-0.257919 0.2726067,-0.491399 0.7989727,-3.689662 0.309059,-1.87788 0.783118,-4.834409 1.053467,-6.570067 0.270349,-1.735658 0.52867,-3.30508 0.574046,-3.487605 0.155513,-0.62555 1.910577,-2.264518 3.023387,-2.823394 1.203631,-0.604488 4.939136,-1.967143 6.295899,-2.296647 0.943682,-0.229183 2.509063,-0.193633 3.907442,0.08874 2.085878,0.421198 5.499659,1.66569 6.994062,2.549682 0.732134,0.433081 1.661605,1.278804 1.956972,1.78064 0.425225,0.722479 0.805146,2.60354 1.94608,9.635482 0.381913,2.35384 0.713864,4.357518 0.737679,4.452622 0.02381,0.0951 0.438741,0.600888 0.922065,1.123964 1.567126,1.696 1.980874,2.418361 2.16217,3.774876 0.183507,1.373024 -0.127602,2.781223 -0.861118,3.89773 -1.870192,2.846683 -6.250185,4.894488 -12.077854,5.646827 -1.276587,0.164804 -5.106125,0.237606 -6.338739,0.120496 z m 6.078242,-1.293331 c 2.60227,-0.157114 3.763782,-0.390812 5.759518,-1.15883 3.24033,-1.246974 5.377781,-2.940454 6.149345,-4.87207 0.170451,-0.426721 0.198116,-0.652644 0.198332,-1.619848 5.22e-4,-0.9685 -0.02659,-1.187697 -0.193766,-1.584749 -0.29692,-0.705177 -0.778029,-1.347686 -1.815789,-2.424929 L 36.126058,30.70714 35.931482,29.442834 c -0.898767,-5.839991 -2.036685,-12.117481 -2.318735,-12.791646 -0.441052,-1.054212 -2.355573,-2.165671 -5.638189,-3.273205 -3.77577,-1.273921 -5.598377,-1.18874 -9.942265,0.464661 -2.111629,0.803743 -3.456766,1.57646 -4.056258,2.330127 -0.553519,0.695868 -0.856608,2.068372 -2.114268,9.574223 L 10.993422,30.929376 9.9275203,31.9748 c -1.1788257,1.156177 -1.5162444,1.673904 -1.757746,2.697044 -0.2037725,0.863297 -0.1327907,2.063799 0.1646311,2.784373 0.7790372,1.887386 2.9420826,3.540608 6.2830196,4.802125 1.854899,0.700402 3.033836,0.933481 5.498837,1.087138 1.618898,0.100914 5.232973,0.10392 6.859729,0.0057 z"
     style="fill:#322153;fill-opacity:1;stroke-width:0.0866449" />
</svg>
